<?xml version="1.0" encoding="UTF-8"?>
<svg fill="none" viewBox="0 0 16 16"
  xmlns="http://www.w3.org/2000/svg">
  <path d="m8 11c1.4481 0.0018 2.8425-0.5477 3.9-1.537l1.76 0.66c0.6873 0.258 1.2795 0.7195 1.6976 1.3229s0.6422 1.32 0.6424 2.0541v1.5c0 0.2652-0.1054 0.5196-0.2929 0.7071s-0.4419 0.2929-0.7071 0.2929h-14c-0.26522 0-0.51957-0.1054-0.70711-0.2929-0.18754-0.1875-0.29289-0.4419-0.29289-0.7071v-1.5c0-1.504 0.933-2.85 2.34-3.378l1.76-0.66c1.0573 0.9897 2.4518 1.5396 3.9 1.538zm-0.196-11h0.392c0.48407-4.8376e-6 0.96288 0.1004 1.4062 0.29488 0.44333 0.19448 0.84143 0.47879 1.1692 0.83498 0.3278 0.35619 0.5781 0.7765 0.7352 1.2344 0.1571 0.45787 0.2175 0.94335 0.1774 1.4258l-0.164 1.971c-0.073 0.88338-0.4755 1.707-1.1276 2.3074-0.65203 0.60041-1.506 0.93369-2.3924 0.93369s-1.7404-0.33328-2.3924-0.93369c-0.65207-0.6004-1.0546-1.424-1.1276-2.3074l-0.164-1.97c-0.04025-0.48249 0.02003-0.96808 0.17705-1.4261 0.15702-0.458 0.40735-0.87843 0.73517-1.2347 0.32782-0.3563 0.726-0.64071 1.1694-0.83524 0.44336-0.19454 0.92226-0.29497 1.4064-0.29496z" clip-rule="evenodd" fill="#A3ACB9" fill-rule="evenodd"/>
</svg>
