<svg width="16" height="16" viewBox="0 0 16 16" fill="none"
  xmlns="http://www.w3.org/2000/svg">
  <path d="M5.71601 3.37408V8.97104C5.71601 9.51684 5.2754 9.95943 4.72364 9.95943C4.17586 9.95943 3.73128 9.50791 3.73128 8.97203V3.38797L1.91921 5.20103C1.82721 5.29384 1.71777 5.36755 1.59717 5.41791C1.47658 5.46827 1.34722 5.4943 1.21653 5.49448C1.08585 5.49466 0.956414 5.46901 0.83568 5.41899C0.714945 5.36897 0.605292 5.29557 0.513028 5.20301C0.420024 5.11111 0.346221 5.00162 0.295911 4.88093C0.2456 4.76024 0.219787 4.63076 0.219972 4.5C0.220156 4.36925 0.246335 4.23983 0.296986 4.11929C0.347637 3.99874 0.421749 3.88947 0.515013 3.79782L4.02105 0.292778C4.11404 0.199148 4.22479 0.125026 4.3468 0.0747557C4.46881 0.0244859 4.59963 -0.000919363 4.73158 2.94782e-05C4.98861 -0.00195526 5.24563 0.0962892 5.44311 0.292778L8.94617 3.79782C9.34312 4.19477 9.33716 4.81599 8.94915 5.20301C8.8569 5.29542 8.74731 5.36869 8.62667 5.41862C8.50602 5.46856 8.37671 5.49417 8.24614 5.49398C8.11557 5.4938 7.98633 5.46782 7.86582 5.41755C7.74532 5.36728 7.63594 5.29369 7.54395 5.20103L5.718 3.37507L5.71601 3.37408Z" fill="#A3ACB9"/>
  <path d="M12.2507 12.625V7.02801C12.2507 6.89792 12.225 6.76912 12.175 6.64899C12.1251 6.52887 12.0519 6.4198 11.9597 6.32805C11.8675 6.23629 11.7581 6.16366 11.6377 6.11433C11.5173 6.06501 11.3884 6.03995 11.2583 6.0406C10.7105 6.0406 10.2659 6.49213 10.2659 7.02801V12.6111L8.45387 10.799C8.36188 10.7063 8.2525 10.6328 8.132 10.5825C8.01149 10.5322 7.88225 10.5062 7.75168 10.5061C7.62111 10.5059 7.4918 10.5315 7.37115 10.5814C7.25051 10.6313 7.14092 10.7046 7.04867 10.797C6.95567 10.8889 6.88187 10.9984 6.83156 11.1191C6.78124 11.2398 6.75543 11.3693 6.75562 11.5C6.7558 11.6308 6.78198 11.7602 6.83263 11.8807C6.88328 12.0013 6.95739 12.1106 7.05066 12.2022L10.5547 15.7063C10.7512 15.9037 11.0092 16.001 11.2652 16C11.3974 16.0009 11.5285 15.9754 11.6506 15.9249C11.7728 15.8745 11.8837 15.8001 11.9768 15.7063L15.4808 12.2022C15.8778 11.8053 15.8708 11.184 15.4828 10.797C15.3906 10.7046 15.281 10.6313 15.1603 10.5814C15.0397 10.5315 14.9104 10.5059 14.7798 10.5061C14.6492 10.5062 14.52 10.5322 14.3995 10.5825C14.279 10.6328 14.1696 10.7063 14.0776 10.799L12.2517 12.625H12.2507Z" fill="#4F566B"/>
</svg>
