<?xml version="1.0" encoding="UTF-8"?>
<svg fill="none" viewBox="0 0 12 7"
  xmlns="http://www.w3.org/2000/svg">
  <path d="m10.193 0.96972c0.0698-0.069732 0.1526-0.12505 0.2437-0.16278 0.0911-0.037738 0.1887-0.057162 0.2873-0.057162 0.0987 0 0.1963 0.019424 0.2874 0.057162 0.0911 0.037739 0.1739 0.093053 0.2436 0.16278 0.0698 0.069736 0.1251 0.15252 0.1628 0.24363 0.0378 0.09111 0.0572 0.18876 0.0572 0.28737 0 0.09862-0.0194 0.19627-0.0572 0.28738-0.0377 0.09111-0.093 0.17389-0.1628 0.24362l-4.725 4.725c-0.14065 0.14061-0.33138 0.21959-0.53025 0.21959s-0.3896-0.07898-0.53025-0.21959l-4.725-4.725c-0.14083-0.14093-0.21991-0.33203-0.21984-0.53126 7.1e-5 -0.19923 0.079284-0.39028 0.22021-0.53111 0.14093-0.14083 0.33204-0.21991 0.53126-0.21984 0.19923 7e-5 0.39028 0.079283 0.53111 0.22021l4.1925 4.1932 4.1932-4.1932z" clip-rule="evenodd" fill="#4F566B" fill-rule="evenodd"/>
</svg>
