<svg width="16" height="16" viewBox="0 0 16 16" fill="none"
  xmlns="http://www.w3.org/2000/svg">
  <path d="M8.002 16.004C5.87974 16.004 3.8444 15.1609 2.34373 13.6603C0.843066 12.1596 0 10.1243 0 8.002C0 5.87974 0.843066 3.8444 2.34373 2.34373C3.8444 0.843066 5.87974 0 8.002 0C8.457 0 8.902 0.047 9.336 0.12V5H11.002V6.668H15.884C15.957 7.103 16.004 7.548 16.004 8.002C16.004 10.1243 15.1609 12.1596 13.6603 13.6603C12.1596 15.1609 10.1243 16.004 8.002 16.004ZM9.994 9.994H6.348C6.25783 9.994 6.17135 9.95818 6.10758 9.89442C6.04382 9.83065 6.008 9.74417 6.008 9.654V6.014H3.568C3.52338 6.014 3.47919 6.02284 3.438 6.04C3.39681 6.05716 3.35942 6.08231 3.328 6.114L1.098 8.344C1.18112 10.059 1.90019 11.6815 3.11494 12.8949C4.32968 14.1084 5.95294 14.8257 7.668 14.907L9.895 12.679C9.958 12.616 9.995 12.529 9.995 12.439V9.992L9.994 9.994Z" fill="#A3ACB9"/>
  <path d="M15.886 6.68603L12.68 9.89403C12.6486 9.92571 12.6112 9.95086 12.57 9.96803C12.5288 9.98519 12.4847 9.99403 12.44 9.99403H9.99403V6.35203C9.99403 6.26238 9.95842 6.17641 9.89504 6.11303C9.83165 6.04964 9.74568 6.01403 9.65603 6.01403H6.00903V3.55903C6.00925 3.46894 6.04522 3.38262 6.10903 3.31903L9.30903 0.116028C10.9535 0.3886 12.4716 1.16848 13.6509 2.34653C14.8302 3.52458 15.6117 5.04185 15.886 6.68603Z" fill="#4F566B"/>
</svg>
