<svg width="16" height="16" viewBox="0 0 16 16" fill="none"
  xmlns="http://www.w3.org/2000/svg">
  <path d="M13.445 13.861C12.413 12.885 10.362 12.22 8 12.22C5.638 12.22 3.587 12.885 2.555 13.861C1.37743 12.767 0.556693 11.3437 0.199756 9.7765C-0.157181 8.20931 -0.033767 6.57094 0.553915 5.07491C1.1416 3.57888 2.16629 2.29456 3.49446 1.38933C4.82263 0.484103 6.39268 -6.10352e-05 8 -6.10352e-05C9.60732 -6.10352e-05 11.1774 0.484103 12.5055 1.38933C13.8337 2.29456 14.8584 3.57888 15.4461 5.07491C16.0338 6.57094 16.1572 8.20931 15.8002 9.7765C15.4433 11.3437 14.6226 12.767 13.445 13.861ZM8 9.231C8.81607 9.231 9.59872 8.90681 10.1758 8.32976C10.7528 7.75271 11.077 6.97007 11.077 6.15399C11.077 5.33792 10.7528 4.55528 10.1758 3.97823C9.59872 3.40118 8.81607 3.07699 8 3.07699C7.18393 3.07699 6.40128 3.40118 5.82423 3.97823C5.24719 4.55528 4.923 5.33792 4.923 6.15399C4.923 6.97007 5.24719 7.75271 5.82423 8.32976C6.40128 8.90681 7.18393 9.231 8 9.231Z" fill="#4F566B"/>
  <path d="M13.9439 13.354C13.1946 14.1878 12.278 14.8544 11.2538 15.3103C10.2297 15.7662 9.12095 16.0012 7.99991 16C6.87887 16.0012 5.77015 15.7662 4.74599 15.3103C3.72184 14.8544 2.80524 14.1878 2.05591 13.354C2.75991 12.043 5.15391 11.077 7.99991 11.077C10.8459 11.077 13.2399 12.043 13.9439 13.354Z" fill="#A3ACB9"/>
</svg>
