<?xml version="1.0" encoding="UTF-8"?>
<svg fill="none" viewBox="0 0 16 16"
  xmlns="http://www.w3.org/2000/svg">
  <path d="m8 16c-2.1217 0-4.1566-0.8429-5.6568-2.3431-1.5003-1.5003-2.3432-3.5352-2.3432-5.6569 0-2.1217 0.84286-4.1566 2.3432-5.6568 1.5003-1.5003 3.5351-2.3432 5.6568-2.3432 2.1217 0 4.1566 0.84286 5.6569 2.3432 1.5002 1.5003 2.3431 3.5351 2.3431 5.6568 0 2.1217-0.8429 4.1566-2.3431 5.6569-1.5003 1.5002-3.5352 2.3431-5.6569 2.3431zm-1-7.911v0.411c1.2e-4 0.23179 0.08076 0.45634 0.22812 0.63525 0.14737 0.17891 0.35231 0.30108 0.57978 0.3456 0.22748 0.04453 0.46335 0.00865 0.6673-0.10149 0.20394-0.11015 0.36329-0.28772 0.4508-0.50236 0.58668-0.1592 1.121-0.47034 1.549-0.902 0.6564-0.65641 1.0252-1.5467 1.0252-2.475s-0.3688-1.8186-1.0252-2.475c-0.65641-0.65641-1.5467-1.0252-2.475-1.0252-0.92831 0-1.8186 0.36877-2.475 1.0252-0.32905 0.32409-0.5894 0.71118-0.76552 1.1381-0.17611 0.42696-0.26436 0.88503-0.25948 1.3469 0.00265 0.26641 0.11103 0.52086 0.30128 0.70736 0.09421 0.09235 0.20568 0.16524 0.32805 0.2145 0.12238 0.04927 0.25326 0.07395 0.38517 0.07264s0.26228-0.0286 0.38364-0.08029c0.12137-0.05169 0.23137-0.12679 0.32372-0.22099 0.09235-0.09421 0.16524-0.20568 0.2145-0.32805 0.04927-0.12238 0.07395-0.25326 0.07264-0.38517-0.0023-0.19469 0.03519-0.3878 0.11016-0.56749s0.18585-0.34218 0.32584-0.47751c0.28103-0.2798 0.66143-0.43692 1.058-0.437 0.38888 0.01007 0.75846 0.17163 1.03 0.45024s0.42343 0.65225 0.42343 1.0413-0.15194 0.76265-0.42343 1.0413-0.64107 0.44017-1.03 0.45024c-0.14015-4.9e-4 -0.27885 0.02837-0.40718 0.08472s-0.24343 0.13895-0.33791 0.24247-0.16624 0.22567-0.21066 0.3586-0.06051 0.27369-0.04725 0.41321v-1e-3zm1 5.911c0.19698 0 0.39204-0.0388 0.57403-0.1142 0.18198-0.0754 0.34734-0.1859 0.48663-0.3251 0.13929-0.1393 0.24978-0.3047 0.32516-0.4867s0.11418-0.377 0.11418-0.574-0.0388-0.392-0.11418-0.574-0.18587-0.3474-0.32516-0.4867c-0.13929-0.1392-0.30465-0.2497-0.48663-0.3251-0.18199-0.0754-0.37705-0.1142-0.57403-0.1142-0.39782 0-0.77936 0.158-1.0607 0.4393s-0.43934 0.6629-0.43934 1.0607 0.15804 0.7794 0.43934 1.0607 0.66284 0.4393 1.0607 0.4393z" clip-rule="evenodd" fill="#A3ACB9" fill-rule="evenodd"/>
</svg>
