<?xml version="1.0" encoding="UTF-8"?>
<svg viewBox="0 0 16 16"
  xmlns="http://www.w3.org/2000/svg">
  <path d="m9.5 14.799v-3.405c-5.2e-4 -0.079-0.01666-0.1572-0.04748-0.23-0.03083-0.0728-0.07573-0.1388-0.13214-0.1942s-0.1232-0.099-0.19654-0.1285c-0.07335-0.0295-0.1518-0.0442-0.23084-0.0433h-1.786c-0.15933-8e-4 -0.31253 0.0614-0.42622 0.173s-0.17867 0.2637-0.18078 0.423v3.405h-4c-0.13123 3e-4 -0.26122-0.0254-0.38253-0.0754-0.12132-0.05-0.23157-0.1235-0.32446-0.2162-0.09288-0.0927-0.16657-0.2028-0.21685-0.324s-0.07616-0.2512-0.07616-0.3824v-7.005c0-0.381 0.218-0.729 0.56-0.896l5.96-4.9 5.896 4.889c0.1741 0.07923 0.3217 0.20687 0.4253 0.36769 0.1035 0.16082 0.1586 0.34804 0.1587 0.53931v7.005c0 0.1311-0.0258 0.261-0.0761 0.3821-0.0502 0.1212-0.1238 0.2313-0.2166 0.3239-0.0927 0.0927-0.2029 0.1662-0.3241 0.2163s-0.2511 0.0758-0.3822 0.0757h-4.001zm-1.5-6.2c0.17072 0 0.33976-0.03363 0.49749-0.09896 0.15772-0.06533 0.30103-0.16109 0.42175-0.2818 0.12072-0.12072 0.21647-0.26403 0.2818-0.42175s0.09896-0.32677 0.09896-0.49749-0.03363-0.33977-0.09896-0.49749-0.16108-0.30103-0.2818-0.42175c-0.12072-0.12071-0.26403-0.21647-0.42175-0.2818-0.15773-0.06533-0.32677-0.09896-0.49749-0.09896-0.34478 0-0.67544 0.13696-0.91924 0.38076s-0.38076 0.57446-0.38076 0.91924 0.13696 0.67544 0.38076 0.91924 0.57446 0.38076 0.91924 0.38076z" fill="#A3ACB9"/>
  <path d="m8.0524 1.0037c-0.05426-0.007434-0.10947-0.003733-0.16225 0.01088-0.05279 0.01462-0.10204 0.03984-0.14475 0.07412l-7.143 5.784c-0.041966 0.03306-0.076884 0.07419-0.10269 0.12097-0.02581 0.04677-0.041988 0.09824-0.047581 0.15137s-4.86e-4 0.10684 0.015019 0.15797c0.015505 0.05112 0.041093 0.09862 0.075256 0.13969l0.75 0.925c0.138 0.17 0.395 0.2 0.568 0.06l6.192-5.015 6.193 5.015c0.173 0.14 0.43 0.11 0.57-0.06l0.748-0.926c0.0342-0.04107 0.0598-0.08857 0.0753-0.13969 0.0155-0.05113 0.0206-0.10484 0.015-0.15797s-0.0218-0.1046-0.0476-0.15137c-0.0258-0.04678-0.0607-0.08791-0.1027-0.12097l-7.143-5.782c-0.04283-0.03441-0.09225-0.05971-0.14521-0.07433-0.05297-0.01461-0.10837-0.018245-0.16279-0.01067v-1e-3z" fill="#4F566B"/>
</svg>
