<?xml version="1.0" encoding="UTF-8"?>
<svg viewBox="0 0 14 16"
  xmlns="http://www.w3.org/2000/svg">
  <path d="m4.5538 14h4.9c-0.11475 0.5651-0.42136 1.0732-0.86787 1.4382-0.4465 0.3649-1.0054 0.5643-1.5821 0.5643-0.57667 0-1.1356-0.1994-1.5821-0.5643-0.4465-0.365-0.75311-0.8731-0.86787-1.4382zm7.45-4.934 1.216 1.232c0.1384 0.1404 0.2322 0.3186 0.2697 0.5122 0.0374 0.1935 0.0168 0.3938-0.0593 0.5757s-0.2043 0.3372-0.3684 0.4465-0.3568 0.1676-0.554 0.1676h-11.008c-0.19715 0-0.38989-0.0583-0.554-0.1676-0.16411-0.1093-0.29226-0.2646-0.36835-0.4465s-0.096712-0.3822-0.059285-0.5757c0.037427-0.1936 0.13124-0.3718 0.26964-0.5122l1.216-1.232v-4.066c0-1.3261 0.52679-2.5978 1.4645-3.5355 0.93768-0.93769 2.2094-1.4645 3.5355-1.4645 1.3261 0 2.5979 0.52678 3.5356 1.4645 0.9376 0.93768 1.4644 2.2094 1.4644 3.5355v4.066z" clip-rule="evenodd" fill="#A3ACB9" fill-rule="evenodd"/>
</svg>
