<?xml version="1.0" encoding="UTF-8"?>
<svg viewBox="0 0 16 12"
  xmlns="http://www.w3.org/2000/svg">
  <path d="m11.1 8.002c1e-4 -0.27578-0.0541-0.54888-0.1595-0.80371-0.1054-0.25484-0.26-0.48641-0.4549-0.68151-0.1949-0.19509-0.4263-0.34989-0.68104-0.45554-0.25473-0.10566-0.52778-0.16011-0.80356-0.16024s-0.54888 0.05406-0.80371 0.15947c-0.25484 0.10541-0.48641 0.25999-0.68151 0.4549-0.19509 0.19491-0.34989 0.42634-0.45554 0.68107-0.10566 0.25473-0.16011 0.52778-0.16024 0.80356h-5.9c-0.552 0-1-0.413-1-0.923v-6.154c0-0.51 0.448-0.923 1-0.923h12.002c0.553 0 1 0.413 1 0.923v7.08l-2.902-1e-3zm-4.094-6.002c-0.53123-8e-4 -1.041 0.20947-1.4172 0.58454-0.3762 0.37508-0.58799 0.88423-0.58879 1.4155s0.20947 1.041 0.58454 1.4172c0.37508 0.3762 0.88423 0.58799 1.4155 0.58879 0.26304 3.9e-4 0.52358-0.05103 0.76674-0.15132 0.24317-0.1003 0.4642-0.24751 0.65047-0.43322 0.18628-0.18572 0.33415-0.40631 0.43517-0.64917 0.10103-0.24287 0.15323-0.50325 0.15362-0.76629s-0.05102-0.52358-0.15132-0.76674c-0.1003-0.24317-0.24751-0.4642-0.43322-0.65047-0.18572-0.18628-0.40631-0.33415-0.64917-0.43517-0.24287-0.10103-0.50325-0.15323-0.76629-0.15362z" fill="#A3ACB9"/>
  <path d="m15 12h-12c-0.552 0-1-0.413-1-0.923v-6.154c0-0.51 0.448-0.923 1-0.923h12c0.552 0 1 0.413 1 0.923v6.154c0 0.51-0.448 0.923-1 0.923zm-5.994-6c-0.26304-3.9e-4 -0.52358 0.05103-0.76674 0.15132-0.24317 0.1003-0.4642 0.24751-0.65047 0.43322-0.18628 0.18572-0.33415 0.40631-0.43517 0.64917-0.10103 0.24287-0.15323 0.50325-0.15362 0.76629s0.05103 0.52358 0.15132 0.76674c0.1003 0.24317 0.24751 0.4642 0.43322 0.65047 0.18572 0.18628 0.40631 0.33415 0.64917 0.43517 0.24287 0.10103 0.50325 0.15322 0.76629 0.15362 0.53123 8e-4 1.041-0.20947 1.4172-0.58454 0.3762-0.37508 0.588-0.88423 0.5888-1.4155s-0.2095-1.041-0.5845-1.4172c-0.3751-0.3762-0.88427-0.58799-1.4155-0.58879z" fill="#4F566B"/>
</svg>
