<?xml version="1.0" encoding="UTF-8"?>
<svg viewBox="0 0 14 16"
  xmlns="http://www.w3.org/2000/svg">
  <path d="m12.587 3.3786h0.33l0.342 0.16c0.337 0.16 0.741 0.64 0.741 1.09v7.066c0 0.366-0.404 0.7-0.741 0.861l-5.726 2.77c-0.123 0.058-0.258 0.087-0.533 0.087v-6.017h-5.34v-5.333l7.044-2.593 0.117-0.11 2.479 1.201-0.336 0.835 1.624-0.017h-1e-3z" fill="#4F566B"/>
  <path d="m7 7.1286v8.247s-0.546 0.0219-0.715-0.0511l-5.752-2.7539c-0.16092-0.0788-0.29633-0.2014-0.39063-0.3537-0.094298-0.1523-0.14365-0.3282-0.14237-0.5073v-7.295c-0.0012064-0.179 0.048186-0.3547 0.14249-0.50686 0.0943-0.15215 0.22967-0.27457 0.39051-0.35314l6.104-2.882c0.11962-0.057675 0.25071-0.087628 0.3835-0.087628 0.1328 0 0.26389 0.029953 0.3835 0.087628l1.753 0.838-6.913 3.307c-0.0777 0.03912-0.14294 0.09917-0.18835 0.17338s-0.06918 0.15962-0.06865 0.24662l7e-3 2.03 2.008 1.032v-2.094c-5.3e-4 -0.08662 0.02303-0.17168 0.06807-0.24567 0.04503-0.074 0.10975-0.13401 0.18693-0.17333l6.906-3.313 1.991 0.953c0.188 0.093 0.35 0.268 0.506 0.427l-6.66 3.275z" fill="#A3ACB9"/>
</svg>
