<?xml version="1.0" encoding="UTF-8"?>
<svg fill="none" viewBox="0 0 12 13"
  xmlns="http://www.w3.org/2000/svg">
  <path d="m9.45 8.9c0.02775 0.021 0.05475 0.04425 0.08025 0.06975l2.25 2.25c0.0716 0.0691 0.1287 0.1519 0.168 0.2434s0.06 0.1899 0.0609 0.2895-0.0181 0.1983-0.0558 0.2905-0.0934 0.1759-0.1639 0.2463c-0.0704 0.0705-0.1541 0.1262-0.2463 0.1639s-0.1909 0.0567-0.2905 0.0558-0.198-0.0216-0.2895-0.0609-0.1743-0.0964-0.2434-0.168l-2.25-2.25c-0.0251-0.0251-0.04841-0.05194-0.06975-0.0803-1.0624 0.7968-2.3872 1.1614-3.7077 1.0203s-2.5384-0.7773-3.4085-1.7805c-0.87008-1.0032-1.3277-2.2989-1.2806-3.626 0.047099-1.3271 0.59538-2.5871 1.5344-3.5261 0.93901-0.93901 2.199-1.4873 3.5261-1.5344 1.3271-0.047099 2.6228 0.41048 3.626 1.2806 1.0032 0.87008 1.6394 2.088 1.7805 3.4085s-0.2235 2.6453-1.0203 3.7077zm-4.2 0.6c0.99456 0 1.9484-0.39509 2.6516-1.0984s1.0984-1.6571 1.0984-2.6516-0.39509-1.9484-1.0984-2.6516-1.6571-1.0984-2.6516-1.0984-1.9484 0.39509-2.6516 1.0984-1.0984 1.6571-1.0984 2.6516 0.39509 1.9484 1.0984 2.6516 1.6571 1.0984 2.6516 1.0984z" clip-rule="evenodd" fill="#697386" fill-rule="evenodd"/>
</svg>
