<?xml version="1.0" encoding="UTF-8"?>
<svg fill="none" viewBox="0 0 14 14"
  xmlns="http://www.w3.org/2000/svg">
  <path d="m13.197 6.017c-0.23 0-1.607 0-2.18-0.695 0-0.115-0.115-0.115-0.115-0.231-0.115-0.81 0.918-1.851 1.032-1.967 0.23-0.231 0.23-0.579 0.115-0.694-0.115-0.116-0.574-0.579-0.688-0.81-0.115-0.232-0.46-0.116-0.689 0.116-0.23 0.23-1.147 1.157-1.95 1.04-0.115 0-0.115-0.115-0.23-0.115-0.689-0.463-0.689-1.851-0.689-2.082 0-0.348-0.114-0.579-0.344-0.579h-1.148c-0.229 0-0.344 0.231-0.344 0.579 0 0.23 0 1.62-0.688 2.198-0.115 0-0.115 0.116-0.23 0.116-0.803 0-1.721-0.926-1.95-1.157-0.23-0.232-0.574-0.232-0.69-0.116-0.114 0.231-0.573 0.694-0.802 0.81-0.115 0.115-0.115 0.463 0.114 0.694 0.23 0.231 1.148 1.157 1.033 1.967 0 0.116-0.115 0.116-0.115 0.231-0.459 0.695-1.836 0.695-2.065 0.695-0.344 0-0.574 0.115-0.574 0.347v1.041c0 0.231 0.23 0.463 0.574 0.463 0.23 0 1.606 0 2.18 0.694 0 0.116 0.115 0.116 0.115 0.231 0.115 0.81-0.918 1.852-1.033 1.967-0.23 0.232-0.23 0.579-0.115 0.695 0.115 0.115 0.574 0.578 0.689 0.81 0.115 0.115 0.459 0.115 0.688-0.116 0.23-0.232 1.148-1.157 1.951-1.042 0.115 0 0.115 0.116 0.23 0.116 0.688 0.579 0.688 1.851 0.688 2.198 0 0.232 0.23 0.579 0.46 0.579h1.032c0.23 0 0.459-0.231 0.459-0.579 0-0.23 0-1.62 0.689-2.198 0.114 0 0.114-0.116 0.23-0.116 0.802-0.115 1.835 0.926 1.95 1.042 0.23 0.231 0.574 0.231 0.688 0.115l0.804-0.81c0.114-0.115 0.114-0.462-0.115-0.694-0.23-0.231-1.148-1.157-1.033-1.967 0-0.115 0.115-0.115 0.115-0.231 0.574-0.694 1.836-0.694 2.18-0.694 0.23 0 0.574-0.232 0.574-0.463v-1.041c-0.23-0.232-0.459-0.347-0.803-0.347zm-6.312 3.47c-1.377 0-2.524-1.156-2.524-2.545 0-1.388 1.147-2.545 2.524-2.545s2.525 1.157 2.525 2.545c0 1.389-1.148 2.546-2.525 2.546v-1e-3z" clip-rule="evenodd" fill="#4F566B" fill-rule="evenodd"/>
</svg>
