<?xml version="1.0" encoding="UTF-8"?>
<svg fill="none" viewBox="0 0 16 16"
  xmlns="http://www.w3.org/2000/svg">
  <path d="m3 7.5v4.5h10v-4.5c0.718 0 1.398-0.168 2-0.468v7.968c0 0.2652-0.1054 0.5196-0.2929 0.7071s-0.4419 0.2929-0.7071 0.2929h-12c-0.26522 0-0.51957-0.1054-0.70711-0.2929-0.18753-0.1875-0.29289-0.4419-0.29289-0.7071v-7.968c0.602 0.3 1.282 0.468 2 0.468zm-3-4.5 1.703-2.555c0.09135-0.13692 0.21508-0.24917 0.36022-0.3268 0.14513-0.077627 0.30719-0.11823 0.47178-0.1182h10.93c0.1646-2.463e-5 0.3266 0.040578 0.4718 0.1182 0.1451 0.077627 0.2689 0.18988 0.3602 0.3268l1.703 2.555c1e-4 0.64453-0.2073 1.272-0.5916 1.7894s-0.925 0.89734-1.542 1.0835c-0.6171 0.18613-1.2777 0.16858-1.884-0.05005s-1.1261-0.62671-1.4824-1.1638c-0.537 0.808-1.457 1.341-2.5 1.341s-1.963-0.533-2.5-1.341c-0.35628 0.53711-0.87606 0.94519-1.4824 1.1638s-1.2669 0.23618-1.884 0.05005c-0.61707-0.18613-1.1578-0.56604-1.5421-1.0835-0.38429-0.51743-0.59172-1.1449-0.59157-1.7894z" clip-rule="evenodd" fill="#A3ACB9" fill-rule="evenodd"/>
</svg>
